<svg xmlns="http://www.w3.org/2000/svg" viewBox="0 0 1090 210"><defs><filter id="a" data-name="drop-shadow-2" filterUnits="userSpaceOnUse"><feOffset dx="10.54" dy="10.54"/><feGaussianBlur result="c"/><feFlood flood-color="#311" flood-opacity="1"/><feComposite in2="c" operator="in"/><feComposite in="SourceGraphic"/></filter></defs><path fill="#fff" stroke="#311" stroke-miterlimit="10" stroke-width="5.32" d="M0 0h1080v200H0z" filter="url(#a)"/><g fill="#311"><path d="M92.33 121.85H71.66c.26 2.33.52 4.74.95 7.06h17.65l6.29 6.29v19.55H76.92l2.06 10.76H56.85l-4.82-4.9c-.34-2.08-.95-5.17-1.03-5.86H25.77L20 148.98V128.9h26.95l-.95-7.06H26.97l-5.77-5.77V96.11h21.88l-.26-7.24h20.66l5.26 5.34.08 1.9h1.2v-9.04h22.74l5.25 5.25v18.51h-5.68v11.02Zm-8.44-8.52v-6.98H70.03v-6.54h-8.78c-.18-2.76-.26-5.08-.35-7.24H46.6c.1 1.47.18 3.97.52 7.24H24.91v13.52h23.76a672 672 0 0 0 2.59 19.29H23.7v13.69h29.62l1.81 10.68H69.6l-1.98-10.68h20.4v-13.7H65.39a610.28 610.28 0 0 1-2.76-19.28H83.9Zm-3.79-10.25V90.25h-6.88v12.83h6.88Zm10.16 0V90.25h-6.8v12.83h6.8ZM175.85 97.14v32.55c0 22.65-15.67 35.82-46.5 35.82h-16.53l-5.77-5.77v-20.06h15.76l-6.37-6.72a36.21 36.21 0 0 1-10.08 4.22l-6.46-6.63v-21.44c6.46-3.27 8.27-7.15 8.27-16.53v-1.3H170l5.85 5.86Zm-55.8 34.53c11.8.52 23.68 1.72 31.1 3.96-2.16 3.88-7.24 7.75-23.69 7.75h-16.7v13.6h16.7c26.52 0 39.87-10.93 39.87-32.11V94.99h-55.45c0 10.42-3.7 14.03-8.27 16.79v16.27c10.33-3.7 17.74-12.14 19.29-19.72h30.82v13.52c-8.78-2.15-22.73-3.87-33.66-4.22v14.04ZM244.27 115.31l5.77 5.77v21.1h-64.07l-5.85-5.77v-21.1h64.15Zm-2.76 18.34v-14.64h-57.69v14.64h57.7ZM301.69 87.33l3.79 3.78 21.35-2.92 6.11 6.11v11.28l2.16 2.15v19.2l-1.9.87v39.78h-45.55l-3.01-3.01c-1.98 2.06-4.4 3.35-8.61 3.35h-13.95l-5.6-5.6v-18.6h4.22l-5.51-5.5v-18.6l6.54-.43-6.54-6.63V94.13h7.06v-6.8h39.44Zm-36 10.24h-7.06v11.54h7.06v13.35l-7.06.43v11.62l7.06-.43v11.8c0 .77-.34 1.3-.94 1.3h-4.83v11.7h10.5c5.78 0 8.02-3.27 8.02-8.61v-17.05l4.13-.34v-11.63l-4.13.52V109.1h4.65V97.57h-4.65v-6.8h-12.75v6.8Zm60.37 9.73c-3.88 1.64-7.24 2.76-12.58 2.76h-13.95c-.77 0-1.29-.6-1.29-1.2v-2.5l25.66-3.28V92.15l-25.66 3.44v-4.82h-12.91v19.97c0 7.5 3.79 10.51 11.62 10.51h18.52c4.56 0 7.66-.86 10.59-2.15v-11.8Zm-40.56 17.3v33.94h38.66V124.6H285.5Zm12.05 9.22h14.56v4.05h-14.56v-4.05Zm0 11.46h14.56v3.96h-14.56v-3.96ZM417.25 126.85c-.51 7.4-1.29 10.59-3.27 15.15l5.08 4.91v20.75h-4.82a47.6 47.6 0 0 1-14.12-6.8c-4.4 3.36-10.6 5.94-17.3 6.98l-3.88-3.7a35.3 35.3 0 0 1-5.25 3.52h-22.3l-5.86-5.68v-4.48l-7.23-7.32V127.2c3.27-2.67 5.33-6.11 6.71-10.07h-1.9l-4.81-4.83V93.35h7.23v-6.2h18.77l2.75 2.76v-1.73h46.24l5.77 5.77v19.38h-1.8v13.52Zm-48.64-9.04-6.55-4.05v-4.13h6.54V97.06h-6.54v-6.3h-12.83v6.3H342v12.57h7.23v3.01c-1.03 7.15-3.45 11.97-7.23 16.02v17.74c2.92-2.59 4.82-5 7.23-8.44v20.84h12.83v-29.11l6.54 4.48v-16.36Zm41.5 26.52a44.8 44.8 0 0 1-7.4-3.36c3.18-5.86 4.99-12.48 5.59-19.46v-12.06h-25.83v-5.6h27.64V91.8h-38.92v32.9c0 7.32-1.04 11.88-2.93 14.38v19.72c9.38-6.3 13-15.25 13.95-26.44a36.38 36.38 0 0 0 4.22 9.3 20.3 20.3 0 0 1-5.86 2.67v14.46a39.26 39.26 0 0 0 14.3-7.83 47.24 47.24 0 0 0 15.24 7.83v-14.46Zm-12.66-22.4c-.52 4.4-1.64 8.28-3.44 11.46a17.33 17.33 0 0 1-3.1-7.32h-8.44v-4.13h14.98ZM575.98 89.82l5.6 5.6v14.9l1.72 1.72v18.08h-2.75v37.03h-69.58l-5.6-5.6v-34.27l-2.75-2.76v-18.08h1.8V89.82h25.07v-2.5h20.32l2.5 2.5h23.68Zm-12.65 20.07 1.72-5.52h7.49v-11.1h-26.18v-2.5h-13.43v2.5h-25.06v11.1h8.01c.6 1.9 1.2 3.62 1.64 5.52h-11.46v11.19h68.2v-11.2h-10.94Zm-54.51 14.72v33.5h62.69v-33.5h-62.69Zm13.6 8.95H558v4.22h-35.57v-4.22Zm0 11.46H558v4.22h-35.57v-4.22Zm8.79-35.14c-.43-1.89-.95-3.61-1.55-5.5h21.1l-1.64 5.5H531.2ZM665.11 124.26v42.89h-65.44l-5.6-5.6V147l-2.32.25-5.6-5.6v-21.09l3.44-.43-2.5-2.5V98c8.79-1.9 13.7-4.56 17.06-9.64h52.35l5.6 5.6v16.1a42.04 42.04 0 0 1-6.55 8.6h3.96l5.6 5.6Zm-12.05-19.71V91.8h-46.41c-1.9 3.19-9.05 7.66-16.1 9.04v13.7c2.75-.44 5.93-.95 8.52-2.07l8.26 7.32a75.72 75.72 0 0 1-17.74 3.87v14.13c2.76-.35 5.43-.87 7.93-1.38v21.7h58.55v-36h-21.44c7.83-5.51 13.26-10.5 18.43-17.56Zm-31.52 9.98-8.27-5.68h-7.06c3.28-1.72 5.34-2.84 8.01-5h21.01c-3.61 4.23-7.92 7.5-13.69 10.68Zm-10.85 18.26h32.72v14.3H610.7v-14.3Zm8.18 8.27v2.66h20.75v-2.66h-20.75ZM743.78 97.4v27.98c0 28.34-22.65 40.13-48.74 40.13h-16.96l-5.86-6.28v-19.55h17.91c13.95 0 27.73-3.7 27.73-19.98v-2.24h-16.88c-3.96 7.75-15.93 16.02-27.47 18.09l-5.68-6.55v-19.46c7.06-2.5 11.71-7.66 11.88-17.9h58.3l5.77 5.76Zm-8.53-2.07h-51.92c-.52 7.92-4.48 13.78-11.8 16.97v14.29c12.23-2.76 20.93-11.8 22.9-17.65h27.13v10.76c0 16.45-12.14 23.68-31.43 23.68h-14.2v13.6h14.29c33.06 0 45.03-16.79 45.03-35.9V95.33ZM825.1 96.88c-1.38 14.12-9.9 23.77-21.78 29.45v39.01H782.3l-5.26-5.77v-25.06l-24.62 6.46-5.77-5.77v-20.92l32.2-7.93c7.24-1.8 17.4-4.56 18.34-13.43l.43-3.19h20.67l6.8 7.15Zm-24.2-3.53c-1.03 8.7-8 13.35-21.18 16.62l-29.36 7.23v14.21l30.4-7.58v32.98h14.03v-37.28c12.4-5.17 19.55-12.83 21.27-26.18h-15.15ZM897.96 110.83c-.34 7.84-1.72 15.24-5.34 22.48l5.68 3.96 4.74 4.82v23.94h-4.05l-21.87-14.64c-11.62 8.87-29.36 13.7-44.52 14.12l-6.02-5.85v-19.72c18.34 0 36.76-7.84 42.36-22.65h-34.53l-5.77-5.85V91.46h47.8v-4.4h22.72l5.26 5.26v18.51h-6.46Zm-21.53-4.48V95.16h-44.17v13.6h42.2c-1.04 20.58-20.16 32.98-44.27 34.45v13.52c17.74-.95 32.2-5.51 42.45-14.3l21.96 14.38v-17.65l-12.14-8.61c4.3-6.98 6.55-14.9 6.97-24.2h-13Zm10.08-3.27V90.25h-6.9v12.83h6.9Zm10.16 0V90.25h-6.8v12.83h6.8ZM933.58 124.52s9.81 3.45 23.42 9.39a220 220 0 0 1 15.15 7.23l4.91 5.51v21.7h-2.5c-10.33-5.25-38.92-18.34-48.47-22.04a27.67 27.67 0 0 1-9.3-6.12l-4.83-4.82a18.12 18.12 0 0 1-5.6-13.43v-2.59c0-11.02 7.16-17.47 17.23-20.06l47.02-12.23 6.45 5.95v20.14l-40.38 9.82c-1.98.52-2.67 1.12-3.1 1.55Zm34.96 18.95c-7.75-4.4-25.14-11.37-37.54-16.02-3.7-1.38-6.03-3.36-6.03-6.29v-.94c0-2.07 1.37-4.48 6.03-5.6l37.54-9.13V91.46l-43.92 11.36c-9.73 2.5-14.55 8.18-14.55 16.54v2.58c0 6.9 4.4 12.75 12.66 16.2 13.86 5.67 34.27 14.89 45.8 20.83v-15.5ZM1060 129.6c0 18.35-5.34 36.6-26.7 36.6-6.45 0-11.79-1.72-15.32-5.25l-4.82-4.83a16.72 16.72 0 0 1-3.96-6.54 447.94 447.94 0 0 0-1.38 16.88h-20.84l-5.16-5.25c.77-10.6 2.5-25.5 3.7-35.22 1.38-10.85 2.75-22.4 5.34-36.17h20.4l5.52 5.34-1.73 12.14c3.7 0 7.15 1.03 9.9 3.7l4.74 4.74c2.59 2.58 3.96 6.2 4.3 9.99 0-4.4-.6-13.44-1.11-18.6h21.1l4.9 5.16c.52 5.08 1.12 13 1.12 17.31Zm-9.38-18.77h-13.78c.6 4.91.86 9.39.86 13.18 0 13.09-3.27 19.37-8.27 19.37-3.1 0-4.3-1.72-4.3-5.85 0-3.62.43-10.42.43-14.56 0-8.1-4.48-11.97-10.42-11.97-3.88 0-7.32 1.73-10.68 4.74 1.38-9.82 2.84-18.17 3.45-22.22h-13.95c-1.81 10.5-6.98 46.16-7.93 64.41h13.7c.25-6.54 1.2-15.84 2.4-25.49 2.59-3.96 5-5.76 7.41-5.76 1.9 0 2.41 1.8 2.41 4.13 0 4.13-.17 7.92-.17 10.93 0 10.94 5.94 16.02 16.8 16.02 15.06 0 22.98-10.76 22.98-32.98 0-4.22-.34-8.87-.94-13.95Z"/><path d="m489.9 104.02-5.32-5.33c-7.36-7.36-17-11.03-26.64-11.03s-19.28 3.67-26.63 11.03a37.67 37.67 0 0 0 0 53.27l5.32 5.33a37.67 37.67 0 0 0 53.27-53.27Z"/></g><g fill="#fff"><path d="M83.9 113.33v-6.98H70.02v-6.54h-8.78c-.18-2.76-.26-5.08-.35-7.24H46.6c.1 1.47.18 3.97.52 7.24H24.91v13.52h23.76a672 672 0 0 0 2.59 19.29H23.7v13.69h29.62l1.81 10.68H69.6l-1.98-10.68h20.4v-13.7H65.39a610.28 610.28 0 0 1-2.76-19.28H83.9Zm-3.8-10.25V90.25h-6.88v12.83h6.88Zm10.16 0V90.25h-6.8v12.83h6.8ZM120.06 131.67c11.8.52 23.67 1.72 31.08 3.96-2.15 3.88-7.23 7.75-23.68 7.75h-16.7v13.6h16.7c26.52 0 39.87-10.93 39.87-32.11V94.99h-55.45c0 10.42-3.7 14.03-8.27 16.79v16.27c10.33-3.7 17.74-12.14 19.29-19.72h30.82v13.52c-8.78-2.15-22.73-3.87-33.66-4.22v14.04ZM241.51 133.65v-14.64h-57.69v14.64h57.7ZM265.7 97.57h-7.07v11.54h7.06v13.35l-7.06.43v11.62l7.06-.43v11.8c0 .77-.34 1.3-.94 1.3h-4.83v11.7h10.5c5.78 0 8.02-3.27 8.02-8.61v-17.05l4.13-.34v-11.63l-4.13.52V109.1h4.65V97.57h-4.65v-6.8h-12.75v6.8Zm60.36 9.73c-3.88 1.64-7.24 2.76-12.58 2.76h-13.95c-.77 0-1.29-.6-1.29-1.2v-2.5l25.66-3.28V92.15l-25.66 3.44v-4.82h-12.91v19.97c0 7.5 3.79 10.51 11.62 10.51h18.52c4.56 0 7.66-.86 10.59-2.15v-11.8Zm-40.56 17.3v33.94h38.66V124.6H285.5Zm12.05 9.22h14.56v4.05h-14.56v-4.05Zm0 11.46h14.56v3.96h-14.56v-3.96ZM368.6 117.8l-6.54-4.04v-4.13h6.54V97.06h-6.54v-6.3h-12.83v6.3H342v12.57h7.23v3.01c-1.03 7.15-3.45 11.97-7.23 16.02v17.74c2.92-2.59 4.82-5 7.23-8.44v20.84h12.83v-29.11l6.54 4.48v-16.36Zm41.5 26.53a44.8 44.8 0 0 1-7.4-3.36c3.19-5.86 5-12.48 5.6-19.46v-12.06h-25.83v-5.6h27.64V91.8h-38.92v32.9c0 7.32-1.04 11.88-2.93 14.38v19.72c9.38-6.3 13-15.25 13.95-26.44a36.38 36.38 0 0 0 4.22 9.3 20.3 20.3 0 0 1-5.86 2.67v14.46a39.26 39.26 0 0 0 14.3-7.83 47.24 47.24 0 0 0 15.24 7.83v-14.46Zm-12.65-22.4c-.52 4.4-1.64 8.28-3.44 11.46a17.33 17.33 0 0 1-3.1-7.32h-8.44v-4.13h14.98ZM563.33 109.89l1.72-5.52h7.49v-11.1h-26.18v-2.5h-13.43v2.5h-25.06v11.1h8.01c.6 1.9 1.2 3.62 1.64 5.52h-11.46v11.19h68.2v-11.2h-10.94Zm-54.51 14.72v33.5h62.69v-33.5h-62.69Zm13.6 8.95H558v4.22h-35.57v-4.22Zm0 11.46H558v4.22h-35.57v-4.22Zm8.79-35.14c-.43-1.89-.95-3.61-1.55-5.5h21.1l-1.64 5.5H531.2ZM653.06 104.55V91.8h-46.41c-1.9 3.19-9.05 7.66-16.1 9.04v13.7c2.75-.44 5.93-.95 8.52-2.07l8.26 7.32a75.72 75.72 0 0 1-17.74 3.87v14.13c2.76-.35 5.43-.87 7.93-1.38v21.7h58.55v-36h-21.44c7.83-5.51 13.26-10.5 18.43-17.56Zm-31.52 9.98-8.27-5.68h-7.06c3.28-1.72 5.34-2.84 8.01-5h21.01c-3.61 4.23-7.92 7.5-13.69 10.68Zm-10.85 18.26h32.72v14.3H610.7v-14.3ZM735.25 95.33h-51.92c-.52 7.92-4.48 13.78-11.8 16.97v14.29c12.23-2.76 20.93-11.8 22.9-17.65h27.13v10.76c0 16.45-12.14 23.68-31.43 23.68h-14.2v13.6h14.29c33.06 0 45.03-16.79 45.03-35.9V95.33ZM800.9 93.35c-1.03 8.7-8 13.35-21.18 16.62l-29.36 7.23v14.21l30.4-7.58v32.98h14.03v-37.28c12.4-5.17 19.55-12.83 21.27-26.18h-15.15ZM876.43 106.35V95.16h-44.17v13.6h42.2c-1.04 20.58-20.16 32.98-44.27 34.45v13.52c17.74-.95 32.2-5.51 42.45-14.3l21.96 14.38v-17.65l-12.14-8.61c4.3-6.98 6.55-14.9 6.97-24.2h-13Zm10.08-3.27V90.25h-6.9v12.83h6.9Zm10.16 0V90.25h-6.8v12.83h6.8ZM968.54 143.47c-7.75-4.4-25.14-11.37-37.54-16.02-3.7-1.38-6.03-3.36-6.03-6.29v-.94c0-2.07 1.37-4.48 6.03-5.6l37.54-9.13V91.46l-43.92 11.36c-9.73 2.5-14.55 8.18-14.55 16.54v2.58c0 6.9 4.4 12.75 12.66 16.2 13.86 5.67 34.27 14.89 45.8 20.83v-15.5ZM1050.62 110.83h-13.78c.6 4.91.86 9.39.86 13.18 0 13.09-3.27 19.37-8.27 19.37-3.1 0-4.3-1.72-4.3-5.85 0-3.62.43-10.42.43-14.56 0-8.1-4.48-11.97-10.42-11.97-3.88 0-7.32 1.73-10.68 4.74 1.38-9.82 2.84-18.17 3.45-22.22h-13.95c-1.81 10.5-6.98 46.16-7.93 64.41h13.7c.25-6.54 1.2-15.84 2.4-25.49 2.59-3.96 5-5.76 7.41-5.76 1.9 0 2.41 1.8 2.41 4.13 0 4.13-.17 7.92-.17 10.93 0 10.94 5.94 16.02 16.8 16.02 15.06 0 22.98-10.76 22.98-32.98 0-4.22-.34-8.87-.94-13.95ZM482.4 100.3c-6.6-6.62-15.4-10.26-24.74-10.26s-18.14 3.64-24.75 10.25c-6.61 6.61-10.25 15.4-10.25 24.75s3.64 18.14 10.25 24.74c6.6 6.61 15.4 10.26 24.75 10.26s18.13-3.64 24.74-10.25c6.62-6.61 10.26-15.4 10.26-24.75S489 106.9 482.4 100.29Zm-17.6 48.45v-13.66h-14.84v13.58l-19.63-23.35 19.63-23.5v13.66h14.84V101.9l19.62 23.35-19.62 23.5Z"/></g><g fill="#311"><path d="M189.25 32.28v6.52h7.29v2.45h-6.66v13.4h6.66v4.26c0 1.4-.45 1.99-1.68 1.99h-5.61v6.66h7.33c4.71 0 6.34-2.04 6.34-7.34v-11.4h-7.15V46.4h7.15V32.28h-13.67Zm34.14 21.15H218l.5 6.2c-1.36.55-2.53.82-4.89.82l10.46-17.48h-7.02l-3.4 5.2h-2.62l4.53-7.65h9.28v-6.7h-6.47v-1.95h-7.02v1.95h-6.66v6.7h3.98l-3.85 6.75v6.93h5.03l-3.71 6.11h-1.68v6.84h8.29c2.4 0 4.44-.46 6.07-1.09l.13 1.5h5.98l-1.54-14.13ZM252.56 60.97l-1.5-.95c.12-.82.19-1.64.19-2.43v-1.44h-4.16v1.28l-3.5-2.33c3.2-1.1 4.81-3.1 4.81-5.82v-.63c0-3.1-2-5.95-7.89-5.95h-1.57c-5.27 0-7.93 2.22-7.93 6.09v.42c0 1.25.72 3.11 2.56 4.75-2.98 1.5-4.06 3.44-4.06 5.57v.85c0 3.24 1.77 6.19 8.38 6.19h3.86c3.47 0 5.73-.92 7.17-2.26l3.64 2.39v-5.73Zm-8.02.39c-.72.3-1.64.46-2.79.46h-3.86c-2.68 0-3.34-.79-3.34-1.7v-.56c0-.99.95-1.74 3.28-2.66l6.7 4.46Zm-1.25-12.21c0 1.04-.52 1.93-4.29 2.94-1.9-1.34-2.68-2.1-2.68-2.75v-.55c0-.79.72-1.54 2.62-1.54h1.57c1.83 0 2.78.72 2.78 1.5v.4ZM288.77 34.18h-32.51v7.16h25.22v4.39c0 11.46-7.79 13.68-17.16 13.68h-6.66v7.2h6.52c15.13 0 24.59-6.03 24.59-20.84V34.18ZM327.04 40.52h-7.39v.6c0 12.67-7.83 17.97-16.3 17.97h-1.54v-25.5h-7.43v33.02h7.57c14.62 0 25.08-8.65 25.08-25.59v-.5ZM338.58 53.75l-.72-13.59h-5.53l.6 13.59h5.65Zm20.92-14.27h-6.11v8.74c0 8.92-6.11 12.95-16.98 12.95h-3.44v6.02h3.44c15.03 0 23.1-6.3 23.1-18.43v-9.28Zm-13.08 14.27-.82-13.59h-5.52l.68 13.59h5.66ZM394.82 47.68c-6.3 0-16.25-1.36-22.05-4.21V32.73h-7.6v33.83h7.6v-15.4c5.12 2.18 13.31 3.85 22.05 3.85v-7.33ZM422.83 66.52v-4.89h-12.17c-4.15 0-5.85-1.06-5.85-3.5 0-1.93 1.35-3.76 6.17-4.88 2.95-.74 7.2-1.35 11.85-1.42v-5.46a90 90 0 0 0-12.75 1.93l-1.03-5.78h-5.78l1.64 7.54c-4.44 2.25-5.62 5.53-5.62 8.26 0 5.01 2.79 8.2 10.7 8.2h12.85ZM458.87 41.8l.9-2.9h3.95v-5.85h-13.77v-1.31h-7.06v1.31H429.7v5.84h4.21c.32 1 .63 1.9.86 2.9h-6.02v5.89h35.86v-5.89h-5.75Zm-28.66 7.73v17.62h32.97V49.53H430.2Zm7.15 4.71h18.7v2.22h-18.7v-2.22Zm0 6.03h18.7v2.21h-18.7v-2.21Zm4.62-18.48c-.22-1-.5-1.9-.81-2.9h11.1l-.87 2.9h-9.42ZM502.89 38.98v-6.7h-24.41c-1 1.67-4.75 4.03-8.47 4.75v7.2c1.45-.22 3.13-.5 4.49-1.08l4.34 3.85a39.95 39.95 0 0 1-9.33 2.04v7.42c1.45-.18 2.86-.45 4.17-.72v11.4h30.8V48.23h-11.29c4.12-2.9 6.98-5.52 9.7-9.24Zm-16.58 5.26-4.34-3h-3.72c1.72-.9 2.81-1.49 4.22-2.62h11.04a24.88 24.88 0 0 1-7.2 5.62Zm-5.7 9.6h17.2v7.51h-17.2v-7.51ZM522.57 43.01c-9.11 0-12.7 5.62-12.7 12.93 0 7.07 2.9 10.41 6.49 10.41 5.36 0 8.26-5.64 8.36-17.19h-5.08c-.13 7.73-1.52 11.26-2.9 11.26-1.08 0-2.09-1.3-2.09-4.48 0-5.14 2.27-8.17 7.64-8.17 4.76 0 6.52 3.25 6.52 7.13 0 4.7-1.89 6.53-5.26 6.75v5.36c5.45-.34 10.37-3.12 10.37-11.92 0-6.9-3.5-12.08-11.35-12.08ZM550.92 35.86v-4.12H544v4.12h-5.2v6.34h10a28.32 28.32 0 0 1-1.4 6.16l-1.86-3.99h-6.7l4.9 10.91a14.33 14.33 0 0 1-4.94 3.85v8.47a21.55 21.55 0 0 0 8.06-5.43l1.04 2.35h7.38l-3.8-8.15c1.72-4.03 3.48-9.46 3.8-14.17h1.13v-6.34h-5.48Zm12.77 22.41-1-13.45h-6.15l1.04 13.45h6.11Zm10.96-15.71v-6.61h-1.68v-4.21h-6.92v4.2h-8.15v6.62h8.15v17.43c0 .41-.28.68-.68.68h-6.7v6.89h8.55c3.36 0 5.75-2.09 5.75-5.35V42.56h1.68ZM615.13 39.89v-6.25H602.1V32h-6.97v1.63h-14.13v17.93c0 2.58-.32 4.35-1.14 5.12v10.55c4.58-2.45 6.93-7.79 6.93-15.94V39.89h28.35Zm-26.94 4.75c0 7.2-.68 17.44-2 21.79h5.71c1.09-4.22 1.45-14.13 1.45-21.79h-5.16Zm20.65 14.9c-.95.77-1.63 1-3.49 1h-3.17c-.72 0-1.22-.5-1.22-1.31V42.74h-6.16v19.7c0 3.26 1.18 4.94 4.98 4.94h5.84c1.36 0 2.4-.32 3.22-.86v-6.98Zm-.55-1.85-1.13-16.71h-5.11l1.13 16.7h5.11Zm7.2 7.56-1.35-19.88h-5.12l1.45 19.88h5.02ZM642.78 51.01c-1.75.32-3.44.57-4.9.9-1.47-1.44-3.73-1.98-5.77-1.98a13 13 0 0 0-4.8.89c.35-.67.63-1.37.95-2.1h14.52V44.2h-13.31c.1-.45.16-.92.22-1.6h-5.09c-.1.68-.2 1.15-.29 1.6h-4.77v4.52h3.34a15.8 15.8 0 0 1-3.79 5.5v6.6c1.95-1.88 4.33-4.59 5.13-5.45 1.14-1.24 3.18-2.39 6.17-2.39.58 0 1.15.13 1.72.42-6.56 2.07-8.66 4.64-8.66 7.7 0 3.4 1.95 5.5 7.7 5.5h11.5V62.1h-10.82c-2.33 0-2.97-.38-2.97-1.34 0-1.11 1.34-2.32 5.67-3.47v3.12h4.8v-4.1l3.45-.55v-4.74ZM674.39 34.73v-3h-5.75v3h-2.45V33.4h-5.98v-1.67h-6.3v1.67H648v5.98h18.2v1.59h2.44v5.8c0 6.83-.95 9.23-3.62 12.17v5.21l-3.76-5.75a23.9 23.9 0 0 0 3.49-7.7h1.9l-2.58-10.1h-5.84l1.58 6.7h-.67c-.28 2.45-.5 3.54-1.45 5.22l-2.31-3.9h-1.95a16.76 16.76 0 0 0 2.72-8.02h-5.8c-.23 2-1.31 4.13-2.4 4.9v7.78c.9-.45 1.72-.95 2.45-1.58l3.44 5.62a15.18 15.18 0 0 1-5.85 3.26v6.97a21.74 21.74 0 0 0 9.24-4.66l2.36 3.8H665v.86c6.11-3.3 9.37-9.42 9.37-20.78v-5.8h2.63V60.3a.9.9 0 0 1-.86.91h-2.8v6.34h5.11c2.54 0 4.48-2.04 4.48-5.12V34.73h-8.56ZM724.56 56.87H710.2v-2.63a7.78 7.78 0 0 0 1.72-.45l.37 1.54h5.07l-.45-1.77 7.65 1.73v-6.3l-7.97-1.31 7.97-1.72v-5.8l-8.06 1.68h-7.56l-1.86 1.4h-2.26l4.98-3.8h14.76V33.5H710.2v-1.77h-7.1v1.77h-14.36v5.93h13.63l-4.62 3.66v4.26h3.53l-3.53 2.54v4.57h5.34v2.4h-14.35v5.93h14.35v4.71h7.11v-4.7h14.36v-5.94ZM696.8 41.84l-8.06-1.68v5.8l8.01 1.72c-2.4 1.26-5.3 1.99-8.01 2.08v6.3c2.4-.23 6.3-1.32 8.06-2.54V41.84Zm18.34 4.93h-4.98l.63 2.45c-.81.31-1.76.45-2.9.45h-1.85l10.46-7.7v10.1l-1.36-5.3ZM755.8 34.55c.05-.96.1-1.86.1-2.77h-6.66c0 4.03-.73 6.7-3.17 8.24V34.6h-5.3l.72-2.8h-6.75l-.67 2.8h-3.63v32.1h15.63V48.82c.77-.27 1.54-.72 2.21-1.13l.9 11h6.4l-1.41-14.3h-2.04c.82-.96 1.5-2 2.04-3.22h3.62v18.02c0 1.13-.45 1.67-1.67 1.67h-4.94v6.7h7.93c3.62 0 5.34-2.12 5.34-5.83V34.55h-8.65Zm-19.2 6.2h3.26v6.8h-3.26v-6.8Zm0 13.04h3.26v6.8h-3.26v-6.8ZM776.4 66.33c-.3-2.22-.72-5.94-.72-9.46 0-5.33 0-8.79.62-14.54h-5.19c-.46 5.65-.62 9.83-.62 13.78 0 3.37.33 7.78.72 10.22h5.19Zm16.98-.42v-5h-7.22c-2.31 0-3.26-.78-3.26-2.41 0-1.15.26-2.45.94-3.63h-5.32a13.9 13.9 0 0 0-1.17 5c0 3.85 2.15 6.04 7.54 6.04h8.49Zm0-18.64v-4.28H778.2v4.9h9.46l-1.43 2.35h5.52l1.63-2.97ZM890.75 42.29V31.65h-7.97v10.64l1.27 15.26h5.48l1.22-15.26Zm0 24.9v-6.83h-7.83v6.83h7.83ZM812.18 32.07h-12.02v35.27h12.02V32.07Zm-7.28 6.22h2.17v8.1h-2.17v-8.1Zm0 14.36h2.17v8.43h-2.17v-8.43Zm8.8-4.97h21.95v-5.99h-2.94l.6-3.03h1.6v-5.94h-6.8v-1.2h-7.05v1.2h-6.95v5.94h1.75c.27 1 .46 2.07.6 3.03h-2.77v5.99Zm.55 1.7v17.96h20.53V49.38h-20.53Zm6.95 4.84h6.58v1.98h-6.58v-1.98Zm0 6.21h6.58v2.07h-6.58v-2.07Zm1.15-18.74a29.86 29.86 0 0 0-.6-3.03h5.67l-.56 3.03h-4.5ZM840.63 37.64v5.71h16.57v-5.7h-16.58Zm.6-5.57v4.42h15.83v-4.42h-15.84Zm0 12.52v4.38h15.83V44.6h-15.84Zm0 5.71v4.33h15.83V50.3h-15.84Zm0 5.67v11.55h15.83V55.97h-15.84Zm5.84 4.37h4.46v2.8h-4.46v-2.8Zm30.02-.88c-1.8 1.1-3.14 1.48-5.58 1.48h-4.05c-1.15 0-1.6-.46-1.6-1.7V51.9h10.3V32.07h-16.94v6.45h10.31v7.27h-10.3V62c0 3.92 2.3 5.53 5.47 5.53h7.14c2.11 0 3.45-.23 5.24-1.06v-7Z"/></g></svg>