<svg xmlns="http://www.w3.org/2000/svg" viewBox="0 0 480 60"><g fill="#fff"><path d="M41.74 27.4h-9.15c.11 1.04.22 2.1.41 3.13h7.82l2.79 2.79v8.65h-8.7l.92 4.77h-9.8l-2.14-2.17c-.15-.92-.42-2.29-.46-2.6H12.26L9.7 39.42v-8.89h11.94l-.42-3.12H12.8l-2.55-2.56V16h9.68l-.11-3.2h9.15l2.33 2.37.03.83h.54v-4h10.07l2.32 2.33v8.2h-2.51v4.88ZM78.73 16.46v14.42c0 10.03-6.94 15.86-20.6 15.86h-7.32l-2.55-2.55V35.3h6.98l-2.83-2.97c-.99.64-2.67 1.4-4.46 1.87l-2.86-2.94v-9.5c2.86-1.45 3.66-3.16 3.66-7.32v-.57h27.38l2.6 2.6ZM109.03 24.5l2.55 2.56v9.35H83.21l-2.6-2.56v-9.34h28.42ZM134.46 12.12l1.67 1.67 9.46-1.3 2.71 2.71v5l.95.95v8.5l-.84.39v17.62h-20.17l-1.33-1.34c-.88.92-1.95 1.49-3.82 1.49h-6.18l-2.48-2.48V37.1h1.87l-2.44-2.44v-8.23l2.9-.2-2.9-2.93v-8.16H117V12.1h17.47ZM185.64 29.62c-.23 3.28-.57 4.69-1.45 6.71l2.25 2.18v9.19h-2.14a21.09 21.09 0 0 1-6.25-3.02 17.2 17.2 0 0 1-7.67 3.1l-1.71-1.65c-.84.65-1.41 1.07-2.33 1.57h-9.87l-2.6-2.52v-1.99l-3.2-3.24V29.77a9.63 9.63 0 0 0 2.97-4.46h-.83l-2.14-2.14v-8.39h3.2v-2.74h8.32l1.22 1.22v-.77h20.47l2.56 2.56v8.58h-.8v5.99Zm-8.77-2.18a13.43 13.43 0 0 1-1.53 5.08 7.68 7.68 0 0 1-1.37-3.24h-3.74v-1.83h6.64ZM255.94 13.22l2.48 2.48v6.6l.76.76v8h-1.22v16.4h-30.82L224.67 45V29.8l-1.22-1.22v-8h.8v-7.37h11.1v-1.1h9l1.1 1.1h10.49ZM295.4 28.47v19h-28.97l-2.48-2.48v-6.45l-1.03.12-2.48-2.48v-9.35l1.52-.19-1.1-1.1v-8.7c3.89-.84 6.06-2.02 7.55-4.27h23.18l2.48 2.48v7.13a18.62 18.62 0 0 1-2.9 3.82h1.76l2.48 2.47Zm-20.47 7.44v1.18h9.2v-1.18h-9.2ZM330.25 16.58v12.4c0 12.54-10.03 17.76-21.59 17.76h-7.5l-2.6-2.78V35.3h7.93c6.18 0 12.28-1.64 12.28-8.85v-.99h-7.47c-1.76 3.44-7.06 7.1-12.17 8.01l-2.52-2.9v-8.62c3.13-1.1 5.19-3.39 5.27-7.93h25.81l2.56 2.56ZM366.27 16.35c-.61 6.25-4.39 10.52-9.65 13.04v17.28h-9.3l-2.33-2.56v-11.1l-10.91 2.86-2.56-2.55v-9.27l14.27-3.5c3.2-.8 7.7-2.03 8.12-5.96l.19-1.4h9.15l3.01 3.16ZM398.53 22.53a23.95 23.95 0 0 1-2.36 9.95l2.51 1.75 2.1 2.14v10.6h-1.8l-9.68-6.48c-5.15 3.92-13 6.06-19.71 6.25l-2.67-2.6v-8.72c8.12 0 16.28-3.47 18.76-10.03h-15.3l-2.55-2.6v-8.84H389V12h10.07l2.32 2.33v8.2h-2.86ZM414.3 28.59s4.35 1.52 10.38 4.16c1.87.8 4.8 2.17 6.71 3.2l2.18 2.44V48h-1.11a384.57 384.57 0 0 0-21.47-9.76 12.25 12.25 0 0 1-4.12-2.71l-2.14-2.14a8.03 8.03 0 0 1-2.47-5.95V26.3c0-4.88 3.16-7.74 7.62-8.88L430.71 12l2.86 2.63v8.93l-17.89 4.34c-.88.23-1.18.5-1.37.69ZM470.3 30.84c0 8.12-2.37 16.2-11.83 16.2-2.86 0-5.22-.76-6.78-2.32l-2.14-2.14a7.4 7.4 0 0 1-1.75-2.9c-.2 1.84-.5 5.42-.61 7.48h-9.23l-2.29-2.32c.34-4.7 1.1-11.3 1.64-15.6.61-4.8 1.22-9.92 2.37-16.02h9.03l2.44 2.37-.76 5.37c1.64 0 3.17.46 4.39 1.64l2.1 2.1a7.1 7.1 0 0 1 1.9 4.42c0-1.94-.26-5.95-.5-8.23h9.35l2.17 2.28c.23 2.25.5 5.76.5 7.67Z"/></g><g fill="#311"><path d="M41.74 27.4h-9.15c.11 1.04.22 2.1.41 3.13h7.82l2.79 2.79v8.65h-8.7l.92 4.77h-9.8l-2.14-2.17c-.15-.92-.42-2.29-.46-2.6H12.26L9.7 39.42v-8.89h11.94l-.42-3.12H12.8l-2.55-2.56V16h9.68l-.11-3.2h9.15l2.33 2.37.03.83h.54v-4h10.07l2.32 2.33v8.2h-2.51v4.88ZM38 23.64v-3.09h-6.14v-2.9h-3.89c-.08-1.21-.11-2.24-.15-3.2h-6.33c.03.65.07 1.76.23 3.2h-9.84v6H22.4c.3 2.66.73 5.64 1.15 8.54h-12.2v6.06h13.11l.8 4.73h6.4l-.87-4.73h9.04v-6.06H29.8c-.46-2.87-.88-5.84-1.22-8.55H38Zm-1.68-4.54v-5.68h-3.05v5.68h3.05Zm4.5 0v-5.68h-3.01v5.68h3.01ZM78.73 16.46v14.42c0 10.03-6.94 15.86-20.6 15.86h-7.32l-2.55-2.55V35.3h6.98l-2.83-2.97c-.99.64-2.67 1.4-4.46 1.87l-2.86-2.94v-9.5c2.86-1.45 3.66-3.16 3.66-7.32v-.57h27.38l2.6 2.6Zm-24.71 15.3c5.22.22 10.48.76 13.76 1.75-.95 1.72-3.2 3.43-10.48 3.43h-7.4v6.03h7.4c11.74 0 17.65-4.85 17.65-14.23V15.51H50.4c0 4.61-1.64 6.21-3.66 7.43v7.21c4.58-1.64 7.86-5.37 8.54-8.73h13.66v5.99A82.54 82.54 0 0 0 54 25.54v6.21ZM109.03 24.5l2.55 2.56v9.35H83.21l-2.6-2.56v-9.34h28.42Zm-1.22 8.13v-6.48H82.26v6.48h25.55ZM134.46 12.12l1.67 1.67 9.46-1.3 2.71 2.71v5l.95.95v8.5l-.84.39v17.62h-20.17l-1.33-1.34c-.88.92-1.95 1.49-3.82 1.49h-6.18l-2.48-2.48V37.1h1.87l-2.44-2.44v-8.23l2.9-.2-2.9-2.93v-8.16H117V12.1h17.47Zm-15.94 4.53h-3.13v5.11h3.13v5.91l-3.13.2V33l3.13-.19v5.23c0 .34-.16.57-.42.57h-2.14v5.18h4.65c2.56 0 3.55-1.44 3.55-3.8v-7.56l1.83-.15v-5.15l-1.83.23v-5.6h2.06v-5.12h-2.06v-3h-5.64v3Zm26.73 4.31c-1.72.73-3.2 1.22-5.57 1.22h-6.18a.55.55 0 0 1-.57-.53v-1.1l11.37-1.46v-4.84l-11.37 1.52v-2.13h-5.72v8.85c0 3.31 1.68 4.65 5.15 4.65h8.2c2.02 0 3.4-.38 4.69-.96v-5.22Zm-17.96 7.67v15.02h17.12V28.63h-17.12Zm5.34 4.08h6.44v1.79h-6.44v-1.8Zm0 5.07h6.44v1.75h-6.44v-1.75ZM185.64 29.62c-.23 3.28-.57 4.69-1.45 6.71l2.25 2.18v9.19h-2.14a21.09 21.09 0 0 1-6.25-3.02 17.2 17.2 0 0 1-7.67 3.1l-1.71-1.65c-.84.65-1.41 1.07-2.33 1.57h-9.87l-2.6-2.52v-1.99l-3.2-3.24V29.77a9.63 9.63 0 0 0 2.97-4.46h-.83l-2.14-2.14v-8.39h3.2v-2.74h8.32l1.22 1.22v-.77h20.47l2.56 2.56v8.58h-.8v5.99Zm-21.55-4-2.9-1.8V22h2.9v-5.57h-2.9v-2.78h-5.68v2.78h-3.2V22h3.2v1.34c-.46 3.16-1.52 5.3-3.2 7.09v7.86a19.25 19.25 0 0 0 3.2-3.74v9.23h5.68v-12.9l2.9 2v-7.25Zm18.38 11.74a19.88 19.88 0 0 1-3.28-1.49 21.91 21.91 0 0 0 2.48-8.62v-5.34h-11.44v-2.47h12.24V14.1h-17.23v14.56c0 3.25-.46 5.27-1.3 6.37v8.74c4.16-2.79 5.76-6.75 6.18-11.71a16.1 16.1 0 0 0 1.87 4.12c-.77.5-1.6.91-2.6 1.18v6.4c2.56-.8 4.7-2.01 6.34-3.46a20.93 20.93 0 0 0 6.75 3.47v-6.41Zm-5.6-9.91a13.43 13.43 0 0 1-1.53 5.07 7.68 7.68 0 0 1-1.37-3.24h-3.74v-1.83h6.64ZM255.94 13.22l2.48 2.48v6.6l.76.76v8h-1.22v16.4h-30.82L224.67 45V29.8l-1.22-1.22v-8h.8v-7.37h11.1v-1.1h9l1.1 1.1h10.49Zm-5.61 8.89.76-2.44h3.32v-4.92h-11.6v-1.11h-5.94v1.1h-11.1v4.93h3.55c.26.83.53 1.6.72 2.44h-5.07v4.95h30.2v-4.95h-4.84Zm-24.14 6.52v14.83h27.76V28.63H226.2Zm6.03 3.96h15.75v1.87h-15.75V32.6Zm0 5.08h15.75v1.86h-15.75v-1.86Zm3.89-15.56c-.2-.84-.42-1.6-.69-2.44h9.34l-.72 2.44h-7.93ZM295.4 28.47v19h-28.97l-2.48-2.48v-6.45l-1.03.12-2.48-2.48v-9.35l1.52-.19-1.1-1.1v-8.7c3.89-.84 6.06-2.02 7.55-4.27h23.18l2.48 2.48v7.13a18.62 18.62 0 0 1-2.9 3.82h1.76l2.48 2.47Zm-5.33-8.73V14.1h-20.55c-.84 1.4-4 3.4-7.14 4v6.07c1.22-.2 2.63-.42 3.78-.92l3.66 3.24c-2.33.8-4.96 1.45-7.86 1.72v6.25c1.22-.15 2.4-.38 3.51-.6v9.6h25.93V27.52h-9.5a32.51 32.51 0 0 0 8.17-7.78Zm-13.96 4.43-3.66-2.52h-3.13a19.15 19.15 0 0 0 3.55-2.21h9.3a20.93 20.93 0 0 1-6.06 4.72Zm-4.8 8.08h14.49v6.33h-14.5v-6.33Zm3.62 3.66v1.18h9.2v-1.18h-9.2ZM330.25 16.58v12.4c0 12.54-10.03 17.76-21.59 17.76h-7.5l-2.6-2.78V35.3h7.93c6.18 0 12.28-1.64 12.28-8.85v-.99h-7.47c-1.76 3.44-7.06 7.1-12.17 8.01l-2.52-2.9v-8.62c3.13-1.1 5.19-3.39 5.27-7.93h25.81l2.56 2.56Zm-3.78-.92h-23a8.3 8.3 0 0 1-5.22 7.51v6.33c5.42-1.22 9.27-5.22 10.15-7.81h12v4.76c0 7.29-5.37 10.5-13.91 10.5h-6.3v6.02h6.34c14.64 0 19.94-7.44 19.94-15.9V15.65ZM366.27 16.35c-.61 6.25-4.39 10.52-9.65 13.04v17.28h-9.3l-2.33-2.56v-11.1l-10.91 2.86-2.56-2.55v-9.27l14.27-3.5c3.2-.8 7.7-2.03 8.12-5.96l.19-1.4h9.15l3.01 3.16Zm-10.72-1.57c-.46 3.86-3.55 5.92-9.38 7.36l-13 3.2v6.3l13.46-3.36V42.9h6.21V26.38c5.5-2.3 8.66-5.69 9.42-11.6h-6.71ZM398.53 22.53a23.95 23.95 0 0 1-2.36 9.95l2.51 1.75 2.1 2.14v10.6h-1.8l-9.68-6.48c-5.15 3.92-13 6.06-19.71 6.25l-2.67-2.6v-8.72c8.12 0 16.28-3.47 18.76-10.03h-15.3l-2.55-2.6v-8.84H389V12h10.07l2.32 2.33v8.2h-2.86ZM389 20.54V15.6h-19.57v6.02h18.69c-.46 9.11-8.92 14.6-19.6 15.26v5.98c7.86-.42 14.26-2.44 18.8-6.33l9.72 6.37v-7.82l-5.37-3.81c1.9-3.09 2.9-6.6 3.08-10.72H389Zm4.46-1.45v-5.68h-3.05v5.68h3.05Zm4.5 0v-5.68h-3.01v5.68h3.01ZM414.3 28.59s4.35 1.52 10.38 4.16c1.87.8 4.8 2.17 6.71 3.2l2.18 2.44V48h-1.11a384.57 384.57 0 0 0-21.47-9.76 12.25 12.25 0 0 1-4.12-2.71l-2.14-2.14a8.03 8.03 0 0 1-2.47-5.95V26.3c0-4.88 3.16-7.74 7.62-8.88L430.71 12l2.86 2.63v8.93l-17.89 4.34c-.88.23-1.18.5-1.37.69Zm15.49 8.39c-3.43-1.95-11.13-5.04-16.63-7.1-1.64-.6-2.67-1.48-2.67-2.78v-.42c0-.91.61-1.98 2.67-2.48l16.63-4.04v-6.21l-19.45 5.03c-4.3 1.1-6.44 3.62-6.44 7.32v1.15c0 3.05 1.94 5.64 5.6 7.17 6.14 2.51 15.18 6.6 20.29 9.22v-6.86ZM470.3 30.84c0 8.12-2.37 16.2-11.83 16.2-2.86 0-5.22-.76-6.78-2.32l-2.14-2.14a7.4 7.4 0 0 1-1.75-2.9c-.2 1.84-.5 5.42-.61 7.48h-9.23l-2.29-2.32c.34-4.7 1.1-11.3 1.64-15.6.61-4.8 1.22-9.92 2.37-16.02h9.03l2.44 2.37-.76 5.37c1.64 0 3.17.46 4.39 1.64l2.1 2.1a7.1 7.1 0 0 1 1.9 4.42c0-1.94-.26-5.95-.5-8.23h9.35l2.17 2.28c.23 2.25.5 5.76.5 7.67Zm-4.16-8.31h-6.1c.26 2.17.38 4.15.38 5.83 0 5.8-1.45 8.58-3.66 8.58-1.37 0-1.9-.76-1.9-2.6 0-1.6.18-4.6.18-6.44 0-3.58-1.98-5.3-4.61-5.3-1.72 0-3.24.77-4.73 2.1.61-4.35 1.26-8.05 1.53-9.84h-6.18c-.8 4.65-3.1 20.44-3.51 28.53h6.06c.12-2.9.54-7.02 1.07-11.3 1.14-1.75 2.21-2.55 3.28-2.55.84 0 1.07.8 1.07 1.83 0 1.83-.08 3.51-.08 4.85 0 4.84 2.63 7.09 7.44 7.09 6.67 0 10.18-4.77 10.18-14.6 0-1.88-.15-3.93-.42-6.18Z"/></g><path fill="#311" d="m217.81 19.5-2.36-2.35-.23.24A16.69 16.69 0 0 0 192.1 40.5l-.24.24 2.36 2.36a16.68 16.68 0 1 0 23.6-23.6Z"/><path fill="#fff" d="M203.66 45.07c-4.31 0-8.36-1.68-11.4-4.72-3.05-3.05-4.73-7.1-4.73-11.4s1.68-8.36 4.72-11.4 7.1-4.73 11.4-4.73 8.36 1.68 11.41 4.72 4.72 7.1 4.72 11.4-1.67 8.36-4.72 11.4a16.02 16.02 0 0 1-11.4 4.73Z"/><path fill="#311" d="M203.66 13.37a15.59 15.59 0 0 1 0 31.14 15.59 15.59 0 0 1 0-31.14m0-1.1a16.68 16.68 0 1 0 0 33.36 16.68 16.68 0 0 0 0-33.37Z"/><path fill="#311" d="m215.38 28.91-13.33 10.4v-6.07h-10.12v-8.66h10.12v-6.01l13.33 10.34Z"/></svg>