<svg xmlns="http://www.w3.org/2000/svg" viewBox="0 0 300 56"><path d="M4.96 42.38c.36-3.78.43-5.83.43-10.22v-7.27l.61-.72-.61-.62v-7.09l4.03-5.36h7.6l1.65 1.66h4.72V11.1h8.38l1.66 1.66h3.24l2.34 2.34v8.2h-.61v21.42H7.3l-2.34-2.34Zm1.9-10.22c0 3.85-.14 6.66-.32 8.78h3.24c.15-2.12.22-4.43.22-8.78H6.86Zm12.57-16.34h-4.9l-1.58 2.12h-1.8l3.74-5.4h-4.75l-3.31 4.4v5.18h2.84l-2.84 3.3v5.08h4.14v10.44h4.06v-10.9c.44-.04.76-.11 1.12-.22L16.2 31h3.2l-.4-10.33h-3.02l3.46-4.86Zm-7.06 9.82 3.24-4.32.15 4.07c-.65.18-2.02.25-2.7.25h-.69Zm3.57 6.52.21 8.78h2.99l-.18-8.78h-3.02Zm3.96-12.64h4.93v1.98h-4.28v5.04h14.07V21.5h-4.28v-1.98h4.9V14.2h-4.9v-1.66h-5.51v1.66H19.9v5.32Zm.64 8.82v12.6h14.08v-12.6H20.54Zm5.04 4.68h3.96v3.2h-3.96v-3.2ZM75.01 29.53v15.3h-1.66c-2.98-.32-6.11-1.01-9.86-3.96v3.96h-8.35l-2.38-2.45a17.13 17.13 0 0 1-9.03 2.52l-2.45-2.45V27.2h.76V11.53h29.91l2.34 2.34v14.94l.72.72Zm-3.78 5.98c-2.7-.22-5.26-1.3-6.26-2.42h6.26v-4.46H59.7v-1.55h10.8v-14.1H43.48v14.1h10.76v1.55H42.72v4.46h6.3c-1 1.12-3.56 2.2-6.3 2.42v5.61c5.11-.72 9.72-3.53 11.52-6.91V41h5.47v-6.8c1.84 3.38 6.4 6.19 11.52 6.91v-5.61ZM48.66 16.75h5.58v1.62h-5.58v-1.62Zm0 4.86h5.58v1.62h-5.58v-1.62Zm11.05-4.86h5.54v1.62h-5.54v-1.62Zm0 4.86h5.54v1.62h-5.54v-1.62ZM95.4 35.06v1.15h1.14l1.32 1.32V43H88.2c-1.87 0-4.18-.26-5.57-1.7l-1.34-1.32a4.04 4.04 0 0 1-1.1-2l-1.54 1.33-1.92-1.95v-6.52l.33-.32c.41-.38.8-.79 1.13-1.22l-1.13-1.13V22.7h3.8l.19-1.2h5.85l1.06 1.2h8.45l1.51 1.46v10.52l-2.52.38Zm.2-6.2c-1.31.25-2.58.44-3.69.68-1.1-1.08-2.8-1.49-4.34-1.49a9.8 9.8 0 0 0-3.63.67c.27-.5.48-1.03.72-1.58h10.95v-3.4H85.58c.07-.34.12-.7.16-1.2H81.9c-.07.5-.14.86-.21 1.2h-3.6v3.4h2.52c-.9 2.06-2 3.36-2.86 4.15v4.97c1.47-1.41 3.27-3.45 3.86-4.1.87-.94 2.4-1.8 4.66-1.8.43 0 .86.1 1.3.3-4.95 1.57-6.53 3.51-6.53 5.82 0 2.57 1.46 4.15 5.8 4.15h8.67v-3.4h-8.16c-1.75 0-2.23-.3-2.23-1.02 0-.84 1-1.75 4.27-2.61v2.35h3.63v-3.1l2.59-.4v-3.58ZM100.36 12.43h4.17V11.1h7.92l1.33 1.33h1.2v-.9h16.01l2.34 2.34v20.84l.72.72v7.78a4.76 4.76 0 0 1-3.27 1.26h-2.02c-1.4 0-2.52-.47-3.31-1.26l-1.7-1.7a11.84 11.84 0 0 1-6.9 3.32c-.83-.47-1.37-.83-1.95-1.3v1.26h-7.92l-1.19-1.15c-.9.54-1.72.87-2.77 1.19l-2.66-2.66V12.43ZM111 27.26v-1.58h4.1v-4.5h-1.36l.47-2.8h.9v-4.5h-4.1v-1.34h-4.97v1.33h-4.25v4.5h1.4c.25.97.43 1.9.54 2.8h-1.94v4.5h4.25v1.6h-4.25v4.6h3.27a6.49 6.49 0 0 1-3.27 2.95v6.2c1.62-.73 3.1-1.92 4.25-3.32V41H111v-3.06a12.03 12.03 0 0 0 3.67 2.8v-6.22a5.73 5.73 0 0 1-2.88-2.66h3.32v-4.6h-4.1Zm-3.13-6.08a24 24 0 0 0-.47-2.8h2.6l-.44 2.8h-1.69Zm22.39 13.93c-.54.61-1.04.76-1.73.76h-.43c-.4 0-.54-.26-.54-.65v-2.3h1.98V12.96H116.4v19.94h1.66c-.22 1.4-1.01 2.45-2.42 2.85V41c4.29-1.08 6.2-3.96 6.66-8.1h.94v4.5c0 2.09 1.26 3.28 3.17 3.28h2.01c.83 0 1.37-.25 1.84-.58v-5Zm-9.25-18.36h4v1.7h-4v-1.7Zm0 5.36h4v1.66h-4v-1.66Zm0 5.37h4v1.62h-4v-1.62ZM170.05 24.06a27.92 27.92 0 0 1-1.87 10.08l1.87 1.83v8.79h-2.12c-1.84-.8-3.2-1.77-4.83-3.32a14.31 14.31 0 0 1-6.48 3.32l-.82-.83h-2.13c-.82.57-2.01.86-3.6.86h-3.38l-.69-.68h-5.36c-.5.25-1.3.54-1.83.68l-2.49-2.52V32.12c.69-.72.87-1.44.87-2.95V13.5h16.16V11.1h12.63l2.34 2.34.25 1.12 1.48 1.5v8Zm-3.78 10.4c-.9-.54-1.7-1.12-2.41-1.73a25.7 25.7 0 0 0 2.41-11.01h-4.28c-.04 2.48-.22 4.53-1.01 6.58a25.52 25.52 0 0 1-1.22-8.42h6.51v-4.93h-.86l-.58-2.41h-4l.69 2.41h-1.9v-2.41h-4.83v2.41h-16.16v14.22c0 2.05-.3 2.84-.87 3.49v8.35c1.77-.86 3.2-2.52 4.22-4.53-.22 1.33-.54 2.59-1.01 3.85h3.67c.5-1.95.76-4.47.8-7.53h-2.13c.1-.35.14-.68.21-1.04h3.53v4.14c0 .32-.14.54-.47.54h-.79v4.57h1.94c3.2 0 3.78-1.11 3.78-3.78v-5.47h4.5v-3.2a23.7 23.7 0 0 0 2.05 4.75c-.68.72-1.44 1.33-2.3 1.83l-.25-2.34h-3.13l.57 7.35h2.27V41c2.3-.9 4.18-2.23 5.72-3.92a21.93 21.93 0 0 0 5.33 3.92v-6.55Zm-22.53-14.58h2.34v7.74h-2.34v-7.74Zm7.45 5.98h3.02v-4.14h-3.02v-1.84h3.74c.04 2.88.25 5.44.83 7.74h-4.57v-1.76ZM179.44 29.2c-.03.6-.05 1.23-.05 1.83h4.58l1.61 1.77a4.3 4.3 0 0 0-.86 2.67h6.14l1.52 1.51v5.45h-7.28c-2.73 0-4.39-.74-5.32-1.82.02.35.28 2.13.28 2.13h-5.88l-1.22-1.22a56.6 56.6 0 0 1-.7-8.55c0-3.98.3-8.88.53-11.16h5.76l.5.48h11.81l1.52 1.51v4.16l-1.61 2.95h-5.8l-1.64-1.7h-3.89Zm-1.8 11.29a55.93 55.93 0 0 1-.53-6.97c0-3.9 0-6.45.46-10.68h-3.82c-.33 4.15-.45 7.23-.45 10.13 0 2.47.24 5.71.52 7.52h3.82Zm12.48-.32V36.5h-5.3c-1.7 0-2.4-.58-2.4-1.78 0-.84.19-1.8.7-2.66h-3.92a10.2 10.2 0 0 0-.87 3.67c0 2.83 1.59 4.44 5.55 4.44h6.24Zm0-13.7v-3.15h-11.16v3.6h6.96l-1.06 1.73h4.06l1.2-2.18ZM224.48 39.75c-2.34-1.65-5.14-3.67-6.73-4.71-4.79 5.97-11.98 8.85-20.8 8.92l-2.45-2.4v-8.21c6.12-.04 9.4-1.34 12.52-4.07a77.28 77.28 0 0 0-8.64-3.24l-1.83-1.98v-9.14a103.4 103.4 0 0 1 15.37 5.72c.25-1 .43-3.38.43-6.77v-1.55h8.6l2.45 2.24v4.17c0 2.74-.36 5.44-1.11 8.1.6.43 1.72 1.19 2.2 1.58l2 2.34v9h-2Zm-1.5-10.69c-1.41-1.19-3-2.05-4.69-3.17 1-2.8 1.55-5.93 1.55-9.17v-2.85h-5.94v2.63c0 2.34-.32 4.43-.94 6.37-4.57-2.3-9.72-4.28-14.86-5.9v6.08c3.27.9 7.7 2.74 12.1 5.08-3.21 4.17-8.29 6.58-14.15 6.62v5.65c9.07-.04 15.58-3.67 19.5-9.21 2.85 1.76 5.26 3.45 7.42 4.96v-7.09ZM256.34 22.8l2.41 2.41v8.82h-26.78l-2.44-2.41V22.8h26.81Zm-1.15 7.66v-6.11h-24.12v6.11h24.12ZM279.92 12.4l2.45 2.37v13.57l-.22 4.21c1.59-.82 2.3-2.91 2.3-6.76V17h8.18l2.41 2.42v9.17c0 8.57-3.67 15.2-13.1 15.2h-7.34l-2.06-2.06-.21 2.05h-7.56l-2.49-2.91c.9-3.56 1.48-8.35 1.48-14.3V12.4h16.16Zm-8.96 1.54h-5.65v12.64c0 6.01-.76 11.05-1.3 13.64h5.8c.65-2.84 1.15-7.45 1.15-13.82V13.95Zm20.56 4.61h-5.55v7.24c0 6.15-1.94 8.56-4.97 8.56h-2.2v-20.4h-5.68v26.27h7.42c7.41 0 10.97-4.43 10.97-13.64v-8.03Z"/><g fill="#fff"><path d="M6.87 32.16c0 3.85-.15 6.66-.33 8.78h3.24c.15-2.12.22-4.43.22-8.78H6.86Zm12.56-16.34h-4.9l-1.58 2.12h-1.8l3.74-5.4h-4.75l-3.31 4.4v5.18h2.84l-2.84 3.3v5.08h4.14v10.44h4.06v-10.9c.44-.04.76-.11 1.12-.22L16.2 31h3.2l-.4-10.33h-3.02l3.46-4.86Zm-7.06 9.82 3.24-4.32.15 4.07c-.65.18-2.02.25-2.7.25h-.69Zm3.57 6.52.21 8.78h2.99l-.18-8.78h-3.02Zm3.96-12.64h4.93v1.98h-4.28v5.04h14.07V21.5h-4.28v-1.98h4.9V14.2h-4.9v-1.66h-5.51v1.66H19.9v5.32Zm.64 8.82v12.6h14.08v-12.6H20.54Zm5.04 4.68h3.96v3.2h-3.96v-3.2ZM71.23 35.5c-2.7-.21-5.26-1.3-6.26-2.4h6.26v-4.47H59.7v-1.55h10.8v-14.1H43.48v14.1h10.76v1.55H42.72v4.46h6.3c-1 1.12-3.56 2.2-6.3 2.42v5.61c5.11-.72 9.72-3.53 11.52-6.91V41h5.47v-6.8c1.84 3.38 6.4 6.19 11.52 6.91v-5.61ZM48.66 16.76h5.58v1.62h-5.58v-1.62Zm0 4.86h5.58v1.62h-5.58v-1.62Zm11.05-4.86h5.54v1.62h-5.54v-1.62Zm0 4.86h5.54v1.62h-5.54v-1.62ZM95.6 28.87c-1.31.24-2.58.43-3.69.67-1.1-1.08-2.8-1.49-4.34-1.49a9.8 9.8 0 0 0-3.63.67c.27-.5.48-1.03.72-1.58h10.95v-3.4H85.58c.07-.34.12-.7.16-1.2H81.9c-.07.5-.14.86-.21 1.2h-3.6v3.4h2.52c-.9 2.06-2 3.36-2.86 4.15v4.97c1.47-1.41 3.27-3.45 3.86-4.1.87-.94 2.4-1.8 4.66-1.8.43 0 .86.1 1.3.3-4.95 1.57-6.53 3.51-6.53 5.82 0 2.57 1.46 4.15 5.8 4.15h8.67v-3.4h-8.16c-1.75 0-2.23-.3-2.23-1.02 0-.84 1-1.75 4.27-2.61v2.35h3.63v-3.1l2.59-.4v-3.58ZM111.01 27.26v-1.58h4.1v-4.5h-1.36l.47-2.8h.9v-4.5h-4.1v-1.34h-4.97v1.33h-4.25v4.5h1.4c.25.97.43 1.9.54 2.8h-1.94v4.5h4.25v1.6h-4.25v4.6h3.27a6.49 6.49 0 0 1-3.27 2.95v6.2c1.62-.73 3.1-1.92 4.25-3.32V41H111v-3.06a12.03 12.03 0 0 0 3.67 2.8v-6.22a5.73 5.73 0 0 1-2.88-2.66h3.32v-4.6h-4.1Zm-3.13-6.08a24 24 0 0 0-.47-2.8h2.6l-.44 2.8h-1.69Zm22.39 13.93c-.54.61-1.04.76-1.73.76h-.43c-.4 0-.54-.26-.54-.65v-2.3h1.98V12.96H116.4v19.94h1.66c-.22 1.4-1.01 2.45-2.42 2.85V41c4.29-1.08 6.2-3.96 6.66-8.1h.94v4.5c0 2.09 1.26 3.28 3.17 3.28h2.01c.83 0 1.37-.25 1.84-.58v-5Zm-9.25-18.36h4v1.7h-4v-1.7Zm0 5.36h4v1.66h-4v-1.66Zm0 5.37h4v1.62h-4v-1.62ZM166.27 34.46c-.9-.54-1.7-1.12-2.41-1.73a25.7 25.7 0 0 0 2.41-11.01h-4.28c-.04 2.48-.22 4.53-1.01 6.58a25.52 25.52 0 0 1-1.22-8.42h6.51v-4.93h-.86l-.58-2.41h-4l.69 2.41h-1.9v-2.41h-4.83v2.41h-16.16v14.22c0 2.05-.3 2.84-.87 3.49v8.35c1.77-.86 3.2-2.52 4.22-4.53-.22 1.33-.54 2.59-1.01 3.85h3.67c.5-1.95.76-4.47.8-7.53h-2.13c.1-.35.14-.68.21-1.04h3.53v4.14c0 .32-.14.54-.47.54h-.79v4.57h1.94c3.2 0 3.78-1.11 3.78-3.78v-5.47h4.5v-3.2a23.7 23.7 0 0 0 2.05 4.75c-.68.72-1.44 1.33-2.3 1.83l-.25-2.34h-3.13l.57 7.35h2.27V41c2.3-.9 4.18-2.23 5.72-3.92a21.93 21.93 0 0 0 5.33 3.92v-6.55Zm-22.53-14.58h2.34v7.74h-2.34v-7.74Zm7.45 5.98h3.02v-4.14h-3.02v-1.84h3.74c.04 2.88.25 5.44.83 7.74h-4.57v-1.76ZM177.64 40.48a55.93 55.93 0 0 1-.53-6.96c0-3.9 0-6.45.46-10.68h-3.82c-.33 4.15-.45 7.23-.45 10.13 0 2.47.24 5.71.52 7.52h3.82Zm12.48-.3V36.5h-5.3c-1.7 0-2.4-.58-2.4-1.78 0-.84.19-1.8.7-2.66h-3.92a10.2 10.2 0 0 0-.87 3.67c0 2.83 1.59 4.44 5.55 4.44h6.24Zm0-13.71v-3.15h-11.16v3.6h6.96l-1.06 1.73h4.06l1.2-2.18ZM222.97 29.06c-1.4-1.19-2.99-2.05-4.68-3.17 1-2.8 1.55-5.93 1.55-9.17v-2.85h-5.94v2.63c0 2.34-.32 4.43-.94 6.37-4.57-2.3-9.72-4.28-14.86-5.9v6.08c3.27.9 7.7 2.74 12.1 5.08-3.21 4.17-8.29 6.58-14.15 6.62v5.65c9.07-.04 15.58-3.67 19.5-9.21 2.85 1.76 5.26 3.45 7.42 4.96v-7.09ZM255.19 30.46v-6.11h-24.12v6.11h24.12ZM270.96 13.94h-5.65v12.64c0 6.01-.76 11.05-1.3 13.64h5.8c.65-2.84 1.15-7.45 1.15-13.82V13.95Zm20.56 4.61h-5.55v7.24c0 6.15-1.94 8.56-4.97 8.56h-2.2v-20.4h-5.68v26.27h7.42c7.41 0 10.97-4.43 10.97-13.64v-8.03Z"/></g></svg>