<svg xmlns="http://www.w3.org/2000/svg" viewBox="0 0 300 56"><defs><filter id="a" data-name="drop-shadow-1" filterUnits="userSpaceOnUse"><feOffset dx="10" dy="10"/><feGaussianBlur result="c"/><feFlood flood-color="#311" flood-opacity=".3"/><feComposite in2="c" operator="in"/><feComposite in="SourceGraphic"/></filter></defs><g filter="url(#a)" opacity=".8"/><path d="M24.15 42.52c.36-3.78.43-5.83.43-10.22v-7.27l.61-.72-.61-.61v-7.1l4.03-5.36h7.6l1.65 1.66h4.72v-1.66h8.38l1.66 1.66h3.24l2.34 2.34v8.2h-.61v21.42h-31.1l-2.34-2.34Zm1.9-10.22c0 3.85-.14 6.66-.32 8.78h3.24c.14-2.12.21-4.42.21-8.78h-3.13Zm12.57-16.34h-4.9l-1.58 2.12h-1.8l3.74-5.4h-4.75l-3.31 4.4v5.18h2.84l-2.84 3.31v5.08h4.14v10.43h4.06v-10.9c.44-.04.76-.11 1.12-.22l.03 1.19h3.2l-.39-10.33h-3.02l3.46-4.86Zm-7.06 9.83 3.24-4.32.14 4.07c-.64.18-2.01.25-2.7.25h-.68Zm3.57 6.51.21 8.78h2.99l-.18-8.78h-3.02Zm3.95-12.63h4.94v1.98h-4.29v5.04h14.08v-5.04h-4.29v-1.98h4.9v-5.33h-4.9v-1.66h-5.5v1.66h-4.94v5.33Zm.65 8.82v12.6h14.08v-12.6H39.73Zm5.04 4.68h3.96v3.2h-3.96v-3.2ZM94.2 29.67v15.3h-1.66c-2.99-.32-6.12-1-9.86-3.96v3.96h-8.35l-2.38-2.45a17.13 17.13 0 0 1-9.03 2.52l-2.45-2.44V27.33h.76V11.69h29.9l2.35 2.34v14.94l.72.72Zm-3.78 5.98c-2.7-.22-5.26-1.3-6.27-2.41h6.27v-4.47H78.9v-1.54h10.8V13.12H62.67v14.1h10.76v1.55H61.9v4.47h6.3c-1.01 1.11-3.56 2.2-6.3 2.4v5.62c5.11-.72 9.72-3.52 11.52-6.9v6.8h5.47v-6.8c1.84 3.38 6.4 6.18 11.52 6.9v-5.61ZM67.85 16.9h5.58v1.62h-5.58V16.9Zm0 4.85h5.58v1.62h-5.58v-1.62ZM78.9 16.9h5.54v1.62H78.9V16.9Zm0 4.86h5.54v1.62H78.9v-1.62ZM114.58 35.2v1.16h1.15l1.32 1.32v5.47h-9.67c-1.87 0-4.18-.27-5.57-1.7l-1.34-1.33a4.04 4.04 0 0 1-1.1-1.99l-1.54 1.32-1.92-1.94v-6.53l.33-.31c.4-.39.8-.8 1.13-1.23l-1.13-1.12v-5.48h3.8l.19-1.2h5.85l1.06 1.2h8.45l1.5 1.47v10.51l-2.51.38Zm.22-6.19c-1.32.24-2.6.43-3.7.67-1.1-1.08-2.8-1.48-4.34-1.48a9.8 9.8 0 0 0-3.63.67c.27-.5.48-1.03.72-1.59h10.95v-3.4h-10.04c.08-.34.12-.7.17-1.2h-3.84c-.07.5-.14.86-.22 1.2h-3.6v3.4h2.52c-.88 2.07-1.99 3.36-2.85 4.16v4.96c1.46-1.41 3.26-3.45 3.86-4.1.87-.94 2.4-1.8 4.66-1.8.43 0 .86.1 1.3.31-4.95 1.56-6.53 3.5-6.53 5.81 0 2.57 1.46 4.15 5.8 4.15h8.67v-3.4h-8.16c-1.75 0-2.23-.3-2.23-1.01 0-.84 1-1.76 4.27-2.62v2.35h3.62V33l2.6-.4V29ZM149.13 43.93h-9.35l-1.98-1.98-2.7-4.14-4.03 6.12h-9.47l-2.2-3.2 8.82-13.47-8.5-13.17v-1.26h9.51l2.02 2.01 2.55 3.96 3.67-5.97h8.68l2.55 3.02-8.06 13.43 8.5 12.96v1.69Zm-3.74-3.53-8.6-13.14 7.95-12.89h-6.44l-4.86 7.82-5.04-7.82h-6.66l8.35 12.9-8.64 13.13h6.77l5.22-7.99 5.18 7.99h6.77ZM173.15 27.88h-2.47v1.73h-2.23c-2.43.5-2.83.77-3.65 1.2-1.25.63-3.77 2.43-3.77 3.96 0 .29.02.4.05.55.81.5 1.63.63 3.43.63h5.76l1.5 1.49v5.68h-7.11c-2.6 0-5.79-.52-7.88-2.61l-1.34-1.35a7.3 7.3 0 0 1-.58-9.55h-1.97l-1.46-1.46v-5.5h13.92v-1.4h6.34l1.46 1.47v5.16Zm-4.85-.64v-.56h-2.95v-3h-12.89v3.56h6.67c-2.9 1.58-4.75 4.2-4.75 6.74 0 3.29 2.26 6.77 8.93 6.77h6.07v-3.77h-4.87c-4.66 0-5.86-1.78-5.86-3.53 0-2.02 3.12-5.35 8.43-6.22h1.22Zm-.14-1.52v-3.57h-1.92v3.57h1.92Zm2.83 0v-3.57h-1.9v3.57h1.9ZM206.3 25.75h-.9c1.05 5 1.73 12.24 2.02 18.14h-8l-1.97-2.01v2.01h-8.43l-1.94-2.16-.29 2.16h-8.2l-2.45-2.73c.83-3.93 1.73-11.77 1.94-15.52l-2.12-2.09v-8.67h10.44v-2.95h9.03l1.87 1.87a4.96 4.96 0 0 1 7.67-1.7l2.48 2.42c.87.9 1.44 2.16 1.44 3.53 0 1.9-1.04 3.56-2.59 4.39v3.31Zm-9.29-9.32h-2.91v-2.95h-6.16v2.95h-10.43v5.76h10.44v18.14h6.15V22.19h8.64v-1.4c-.29.03-.61.06-.9.06a4.83 4.83 0 0 1-4.82-4.42Zm-17.34 8.35c0 2.84-1.01 11.34-1.7 15.55h6.2a168.4 168.4 0 0 0 1.44-15.55h-5.94Zm24.3 15.55c-.3-6.73-1.02-11.88-1.8-15.52h-5.77a105.3 105.3 0 0 1 1.44 15.52h6.12Zm-2.17-27.75a3.43 3.43 0 0 0 0 6.87 3.41 3.41 0 0 0 3.46-3.45 3.43 3.43 0 0 0-3.46-3.42Zm0 4.82c-.68 0-1.33-.72-1.33-1.4 0-.72.65-1.3 1.33-1.3.72 0 1.37.58 1.37 1.3 0 .68-.65 1.4-1.37 1.4ZM241.94 44.14l-9.14-6.12c-4.86 3.71-12.28 5.73-18.61 5.9l-2.52-2.44v-8.24c7.67 0 15.37-3.28 17.71-9.47h-14.44l-2.4-2.45v-8.35h26.6l2.4 2.41v4.14c0 3.82-.53 7.45-2.26 10.94l2.37 1.66 1.98 2.02v10h-1.69Zm-1.83-3.85v-7.38l-5.08-3.6c2.05-3.3 2.95-7.12 2.95-11.8v-3h-23.93v5.7h17.63c-.43 8.6-8.42 13.78-18.5 14.4v5.64c7.42-.4 13.46-2.3 17.75-5.97l9.18 6.01ZM275.85 26.43v8.32c-6.76-.04-12.63-.94-17.56-2.6v11.78h-8.68l-2.44-2.41v-29.6h8.7l2.42 2.42v7.41c4.17 1.3 9.07 2.02 14.9 2.06l2.66 2.62Zm-3.56-1.08c-5 0-12.92-1.08-17.53-3.34v-8.53h-6.05v26.88h6.05V28.13c4.07 1.73 10.58 3.06 17.53 3.06v-5.83Z"/><g fill="#fff"><path d="M26.05 32.3c0 3.85-.14 6.66-.32 8.78h3.24c.14-2.12.21-4.42.21-8.78h-3.13Zm12.57-16.34h-4.9l-1.58 2.12h-1.8l3.74-5.4h-4.75l-3.31 4.4v5.18h2.84l-2.84 3.31v5.08h4.14v10.43h4.06v-10.9c.44-.04.76-.11 1.12-.22l.03 1.19h3.2l-.39-10.33h-3.02l3.46-4.86Zm-7.06 9.83 3.24-4.32.14 4.07c-.64.18-2.01.25-2.7.25h-.68Zm3.57 6.51.21 8.78h2.99l-.18-8.78h-3.02Zm3.95-12.63h4.94v1.98h-4.29v5.04h14.08v-5.04h-4.29v-1.98h4.9v-5.33h-4.9v-1.66h-5.5v1.66h-4.94v5.33Zm.65 8.82v12.6h14.08v-12.6H39.73Zm5.04 4.68h3.96v3.2h-3.96v-3.2ZM90.42 35.65c-2.7-.22-5.26-1.3-6.27-2.41h6.27v-4.47H78.9v-1.54h10.8V13.12H62.67v14.1h10.76v1.55H61.9v4.47h6.3c-1.01 1.11-3.56 2.2-6.3 2.4v5.62c5.11-.72 9.72-3.52 11.52-6.9v6.8h5.47v-6.8c1.84 3.38 6.4 6.18 11.52 6.9v-5.61ZM67.85 16.9h5.58v1.62h-5.58V16.9Zm0 4.85h5.58v1.62h-5.58v-1.62ZM78.9 16.9h5.54v1.62H78.9V16.9Zm0 4.86h5.54v1.62H78.9v-1.62ZM114.8 29.01c-1.32.24-2.6.43-3.7.67-1.1-1.08-2.8-1.48-4.34-1.48a9.8 9.8 0 0 0-3.63.67c.27-.5.48-1.03.72-1.59h10.95v-3.4h-10.04c.08-.34.12-.7.17-1.2h-3.84c-.07.5-.14.86-.22 1.2h-3.6v3.4h2.52c-.88 2.07-1.99 3.36-2.85 4.16v4.96c1.46-1.41 3.26-3.45 3.86-4.1.87-.94 2.4-1.8 4.66-1.8.43 0 .86.1 1.3.31-4.95 1.56-6.53 3.5-6.53 5.81 0 2.57 1.46 4.15 5.8 4.15h8.67v-3.4h-8.16c-1.75 0-2.23-.3-2.23-1.01 0-.84 1-1.76 4.27-2.62v2.35h3.62V33l2.6-.4V29ZM145.4 40.4l-8.61-13.14 7.95-12.89h-6.44l-4.86 7.82-5.04-7.82h-6.66l8.35 12.9-8.64 13.13h6.77l5.22-7.99 5.18 7.99h6.77ZM168.3 27.23v-.55h-2.95v-3h-12.89v3.56h6.67c-2.9 1.58-4.75 4.2-4.75 6.74 0 3.29 2.26 6.77 8.93 6.77h6.07v-3.77h-4.87c-4.66 0-5.86-1.78-5.86-3.53 0-2.02 3.12-5.35 8.43-6.22h1.22Zm-.14-1.5v-3.58h-1.92v3.57h1.92Zm2.83 0v-3.58h-1.9v3.57h1.9ZM197.01 16.43h-2.91v-2.95h-6.16v2.95h-10.43v5.76h10.44v18.14h6.15V22.19h8.64v-1.4c-.29.03-.61.06-.9.06a4.83 4.83 0 0 1-4.82-4.42Zm-17.34 8.35c0 2.84-1.01 11.34-1.7 15.55h6.2a168.4 168.4 0 0 0 1.44-15.55h-5.94Zm24.3 15.55c-.3-6.73-1.02-11.88-1.8-15.52h-5.77a105.3 105.3 0 0 1 1.44 15.52h6.12Zm-2.17-27.75a3.43 3.43 0 0 0 0 6.87 3.41 3.41 0 0 0 3.46-3.45 3.43 3.43 0 0 0-3.46-3.42Zm0 4.82c-.68 0-1.33-.72-1.33-1.4 0-.72.65-1.3 1.33-1.3.72 0 1.37.58 1.37 1.3 0 .68-.65 1.4-1.37 1.4ZM240.1 40.3V32.9l-5.07-3.6c2.05-3.3 2.95-7.12 2.95-11.8v-3h-23.93v5.7h17.63c-.43 8.6-8.42 13.78-18.5 14.4v5.64c7.42-.4 13.46-2.3 17.75-5.97l9.18 6.01ZM272.3 25.35c-5.01 0-12.93-1.08-17.54-3.34v-8.53h-6.05v26.88h6.05V28.13c4.07 1.73 10.58 3.06 17.53 3.06v-5.83Z"/></g></svg>